<svg width="16" height="16" viewBox="0 0 16 16" fill="none" xmlns="http://www.w3.org/2000/svg">
    <path d="M6.28438 9.146e-08C7.47903 -0.000203664 8.64901 0.340042 9.65724 0.980875C10.6655 1.62171 11.4702 2.53659 11.9771 3.61834C12.4841 4.70008 12.6722 5.90389 12.5196 7.08874C12.3669 8.27358 11.8798 9.39039 11.1152 10.3083L15.8317 15.0236C15.933 15.1244 15.9928 15.2595 15.9994 15.4022C16.006 15.5449 15.9589 15.6849 15.8674 15.7946C15.7759 15.9043 15.6467 15.9757 15.5051 15.9949C15.3635 16.014 15.2199 15.9794 15.1026 15.8979L15.0226 15.8328L10.3072 11.1163C9.53144 11.7621 8.61154 12.2116 7.62534 12.4267C6.63913 12.6418 5.61562 12.6163 4.64137 12.3522C3.66713 12.0882 2.7708 11.5934 2.0282 10.9097C1.28561 10.226 0.718592 9.37358 0.375111 8.42443C0.0316298 7.47529 -0.0782118 6.45738 0.0548764 5.45681C0.187965 4.45625 0.560068 3.50244 1.13971 2.67608C1.71936 1.84972 2.4895 1.17511 3.38499 0.709306C4.28048 0.243501 5.27498 0.000206849 6.28438 9.146e-08ZM6.28438 1.14283C4.92042 1.14283 3.61232 1.68465 2.64786 2.6491C1.68339 3.61355 1.14156 4.92162 1.14156 6.28556C1.14156 7.6495 1.68339 8.95757 2.64786 9.92202C3.61232 10.8865 4.92042 11.4283 6.28438 11.4283C7.64834 11.4283 8.95643 10.8865 9.9209 9.92202C10.8854 8.95757 11.4272 7.6495 11.4272 6.28556C11.4272 4.92162 10.8854 3.61355 9.9209 2.6491C8.95643 1.68465 7.64834 1.14283 6.28438 1.14283Z" fill="white"/>
    </svg>
    