<svg width="48" height="48" viewBox="0 0 48 48" fill="none" xmlns="http://www.w3.org/2000/svg">
    <path d="M22.546 40.626C22.3656 40.8169 22.2245 41.0415 22.1309 41.287C22.0372 41.5325 21.9929 41.794 22.0003 42.0566C22.0077 42.3192 22.0668 42.5777 22.1742 42.8175C22.2815 43.0573 22.4351 43.2736 22.626 43.454C22.8169 43.6344 23.0416 43.7755 23.287 43.8691C23.5325 43.9627 23.794 44.0071 24.0566 43.9997C24.3192 43.9923 24.5777 43.9332 24.8175 43.8258C25.0573 43.7185 25.2736 43.5649 25.454 43.374L42.454 25.374C42.8051 25.0027 43.0007 24.511 43.0007 24C43.0007 23.489 42.8051 22.9973 42.454 22.626L25.454 4.62399C25.2748 4.42887 25.0585 4.2713 24.8179 4.16045C24.5772 4.04961 24.3169 3.98768 24.0522 3.97827C23.7874 3.96886 23.5233 4.01217 23.2754 4.10566C23.0275 4.19915 22.8006 4.34097 22.608 4.52287C22.4154 4.70478 22.2608 4.92316 22.1533 5.16531C22.0457 5.40746 21.9874 5.66857 21.9816 5.93346C21.9758 6.19836 22.0228 6.46176 22.1197 6.70836C22.2165 6.95497 22.3615 7.17986 22.546 7.36999L38.25 24L22.546 40.626Z" fill="#072549"/>
    </svg>
    