<svg width="48" height="48" viewBox="0 0 48 48" fill="none" xmlns="http://www.w3.org/2000/svg">
    <path d="M25.454 7.37401C25.6345 7.18307 25.7755 6.95846 25.8691 6.713C25.9628 6.46754 26.0071 6.20605 25.9997 5.94344C25.9923 5.68084 25.9332 5.42227 25.8258 5.1825C25.7185 4.94272 25.565 4.72645 25.374 4.54601C25.1831 4.36557 24.9585 4.22451 24.713 4.13088C24.4675 4.03725 24.206 3.99288 23.9434 4.00031C23.6808 4.00774 23.4223 4.06682 23.1825 4.17418C22.9427 4.28153 22.7264 4.43507 22.546 4.62601L5.54601 22.626C5.19494 22.9973 4.99933 23.489 4.99933 24C4.99933 24.511 5.19494 25.0027 5.54601 25.374L22.546 43.376C22.7253 43.5711 22.9415 43.7287 23.1821 43.8395C23.4228 43.9504 23.6831 44.0123 23.9479 44.0217C24.2127 44.0311 24.4767 43.9878 24.7246 43.8943C24.9725 43.8009 25.1994 43.659 25.392 43.4771C25.5846 43.2952 25.7392 43.0768 25.8468 42.8347C25.9543 42.5925 26.0126 42.3314 26.0184 42.0665C26.0242 41.8016 25.9773 41.5382 25.8804 41.2916C25.7835 41.045 25.6386 40.8201 25.454 40.63L9.75001 24L25.454 7.37401Z" fill="#072549"/>
    </svg>
    